<svg xmlns="http://www.w3.org/2000/svg" xmlns:xlink="http://www.w3.org/1999/xlink" width="400" zoomAndPan="magnify" viewBox="0 0 300 149.999998" height="200" preserveAspectRatio="xMidYMid meet" version="1.2"><g id="96c17730b6"><path style=" stroke:none;fill-rule:nonzero;fill:#ff0000;fill-opacity:1;" d="M 94.949219 52.609375 C 93.871094 48.605469 90.710938 45.445312 86.703125 44.367188 C 79.382812 42.4375 50.101562 42.4375 50.101562 42.4375 C 50.101562 42.4375 20.824219 42.4375 13.503906 44.367188 C 9.496094 45.445312 6.335938 48.605469 5.257812 52.609375 C 3.332031 59.929688 3.332031 75.109375 3.332031 75.109375 C 3.332031 75.109375 3.332031 90.367188 5.257812 97.609375 C 6.335938 101.617188 9.496094 104.777344 13.503906 105.855469 C 20.824219 107.78125 50.101562 107.78125 50.101562 107.78125 C 50.101562 107.78125 79.382812 107.78125 86.703125 105.855469 C 90.710938 104.777344 93.871094 101.617188 94.949219 97.609375 C 96.875 90.289062 96.875 75.109375 96.875 75.109375 C 96.875 75.109375 96.875 59.929688 94.949219 52.609375 Z M 94.949219 52.609375 "/><path style=" stroke:none;fill-rule:nonzero;fill:#ffffff;fill-opacity:1;" d="M 65.050781 75.1875 L 40.703125 61.085938 L 40.703125 89.210938 Z M 65.050781 75.1875 "/><path style=" stroke:none;fill-rule:nonzero;fill:#282828;fill-opacity:1;" d="M 139.179688 102.003906 C 137.332031 100.769531 136.019531 98.84375 135.25 96.148438 C 134.480469 93.527344 134.09375 89.984375 134.09375 85.667969 L 134.09375 79.734375 C 134.09375 75.34375 134.554688 71.796875 135.402344 69.101562 C 136.328125 66.402344 137.714844 64.476562 139.566406 63.246094 C 141.492188 62.011719 143.957031 61.394531 147.039062 61.394531 C 150.042969 61.394531 152.511719 62.011719 154.359375 63.246094 C 156.207031 64.476562 157.519531 66.480469 158.367188 69.101562 C 159.214844 71.71875 159.675781 75.265625 159.675781 79.734375 L 159.675781 85.667969 C 159.675781 90.058594 159.289062 93.527344 158.441406 96.222656 C 157.597656 98.84375 156.285156 100.847656 154.4375 102.082031 C 152.585938 103.3125 150.042969 103.929688 146.886719 103.929688 C 143.570312 103.851562 141.027344 103.234375 139.179688 102.003906 Z M 149.582031 95.609375 C 150.121094 94.296875 150.351562 92.0625 150.351562 89.058594 L 150.351562 76.265625 C 150.351562 73.339844 150.121094 71.179688 149.582031 69.792969 C 149.042969 68.40625 148.195312 67.789062 146.886719 67.789062 C 145.652344 67.789062 144.726562 68.484375 144.265625 69.792969 C 143.726562 71.179688 143.496094 73.339844 143.496094 76.265625 L 143.496094 89.058594 C 143.496094 92.0625 143.726562 94.296875 144.265625 95.609375 C 144.726562 96.917969 145.652344 97.609375 146.960938 97.609375 C 148.117188 97.609375 149.042969 96.917969 149.582031 95.609375 Z M 149.582031 95.609375 "/><path style=" stroke:none;fill-rule:nonzero;fill:#282828;fill-opacity:1;" d="M 281.347656 85.746094 L 281.347656 87.824219 C 281.347656 90.445312 281.421875 92.449219 281.578125 93.757812 C 281.730469 95.066406 282.039062 96.070312 282.578125 96.609375 C 283.042969 97.226562 283.8125 97.535156 284.890625 97.535156 C 286.277344 97.535156 287.203125 96.996094 287.742188 95.914062 C 288.28125 94.835938 288.511719 93.066406 288.589844 90.523438 L 296.527344 90.984375 C 296.605469 91.371094 296.605469 91.832031 296.605469 92.449219 C 296.605469 96.222656 295.601562 99.074219 293.523438 100.925781 C 291.441406 102.773438 288.511719 103.699219 284.738281 103.699219 C 280.191406 103.699219 277.03125 102.234375 275.183594 99.382812 C 273.332031 96.53125 272.410156 92.140625 272.410156 86.128906 L 272.410156 78.964844 C 272.410156 72.800781 273.332031 68.328125 275.257812 65.480469 C 277.1875 62.628906 280.421875 61.242188 284.96875 61.242188 C 288.128906 61.242188 290.59375 61.855469 292.289062 63.011719 C 293.984375 64.167969 295.140625 66.019531 295.832031 68.40625 C 296.527344 70.871094 296.835938 74.261719 296.835938 78.578125 L 296.835938 85.589844 L 281.347656 85.589844 Z M 282.503906 68.484375 C 282.039062 69.101562 281.730469 70.023438 281.578125 71.335938 C 281.421875 72.644531 281.347656 74.648438 281.347656 77.34375 L 281.347656 80.273438 L 288.128906 80.273438 L 288.128906 77.34375 C 288.128906 74.726562 288.050781 72.722656 287.894531 71.335938 C 287.742188 69.949219 287.355469 69.023438 286.894531 68.484375 C 286.433594 67.945312 285.660156 67.636719 284.738281 67.636719 C 283.734375 67.636719 282.964844 67.945312 282.503906 68.484375 Z M 282.503906 68.484375 "/><path style=" stroke:none;fill-rule:nonzero;fill:#282828;fill-opacity:1;" d="M 116.679688 84.972656 L 106.199219 46.984375 L 115.371094 46.984375 L 119.066406 64.167969 C 119.992188 68.40625 120.6875 72.027344 121.148438 75.035156 L 121.378906 75.035156 C 121.6875 72.875 122.382812 69.332031 123.460938 64.246094 L 127.3125 46.984375 L 136.484375 46.984375 L 125.847656 84.972656 L 125.847656 103.234375 L 116.757812 103.234375 L 116.757812 84.972656 Z M 116.679688 84.972656 "/><path style=" stroke:none;fill-rule:nonzero;fill:#282828;fill-opacity:1;" d="M 189.417969 62.164062 L 189.417969 103.234375 L 182.175781 103.234375 L 181.40625 98.226562 L 181.175781 98.226562 C 179.25 102.003906 176.242188 103.929688 172.3125 103.929688 C 169.617188 103.929688 167.613281 103.003906 166.304688 101.234375 C 164.992188 99.460938 164.375 96.6875 164.375 92.832031 L 164.375 62.164062 L 173.625 62.164062 L 173.625 92.292969 C 173.625 94.144531 173.855469 95.453125 174.238281 96.222656 C 174.625 96.996094 175.320312 97.378906 176.242188 97.378906 C 177.015625 97.378906 177.785156 97.148438 178.554688 96.609375 C 179.324219 96.148438 179.863281 95.53125 180.171875 94.761719 L 180.171875 62.164062 Z M 189.417969 62.164062 "/><path style=" stroke:none;fill-rule:nonzero;fill:#282828;fill-opacity:1;" d="M 236.808594 62.164062 L 236.808594 103.234375 L 229.566406 103.234375 L 228.796875 98.226562 L 228.5625 98.226562 C 226.636719 102.003906 223.632812 103.929688 219.703125 103.929688 C 217.003906 103.929688 215.003906 103.003906 213.691406 101.234375 C 212.382812 99.460938 211.765625 96.6875 211.765625 92.832031 L 211.765625 62.164062 L 221.011719 62.164062 L 221.011719 92.292969 C 221.011719 94.144531 221.242188 95.453125 221.628906 96.222656 C 222.015625 96.996094 222.707031 97.378906 223.632812 97.378906 C 224.402344 97.378906 225.171875 97.148438 225.945312 96.609375 C 226.714844 96.148438 227.253906 95.53125 227.5625 94.761719 L 227.5625 62.164062 Z M 236.808594 62.164062 "/><path style=" stroke:none;fill-rule:nonzero;fill:#282828;fill-opacity:1;" d="M 214.539062 54.460938 L 205.371094 54.460938 L 205.371094 103.234375 L 196.355469 103.234375 L 196.355469 54.535156 L 187.183594 54.535156 L 187.183594 47.140625 L 214.539062 47.140625 Z M 214.539062 54.460938 "/><path style=" stroke:none;fill-rule:nonzero;fill:#282828;fill-opacity:1;" d="M 267.398438 68.714844 C 266.859375 66.09375 265.9375 64.246094 264.703125 63.089844 C 263.46875 61.933594 261.699219 61.316406 259.539062 61.316406 C 257.84375 61.316406 256.226562 61.78125 254.761719 62.78125 C 253.296875 63.707031 252.144531 65.015625 251.371094 66.558594 L 251.296875 66.558594 L 251.296875 44.90625 L 242.355469 44.90625 L 242.355469 103.234375 L 249.984375 103.234375 L 250.910156 99.382812 L 251.140625 99.382812 C 251.835938 100.769531 252.914062 101.847656 254.378906 102.695312 C 255.839844 103.46875 257.382812 103.929688 259.15625 103.929688 C 262.3125 103.929688 264.546875 102.464844 266.011719 99.613281 C 267.476562 96.761719 268.246094 92.21875 268.246094 86.128906 L 268.246094 79.65625 C 268.246094 74.878906 267.9375 71.335938 267.398438 68.714844 Z M 258.921875 85.4375 C 258.921875 88.441406 258.769531 90.753906 258.539062 92.449219 C 258.308594 94.144531 257.84375 95.375 257.304688 96.070312 C 256.6875 96.761719 255.917969 97.148438 254.992188 97.148438 C 254.222656 97.148438 253.53125 96.996094 252.914062 96.609375 C 252.296875 96.222656 251.757812 95.683594 251.371094 94.992188 L 251.371094 71.71875 C 251.679688 70.640625 252.21875 69.71875 252.992188 68.945312 C 253.761719 68.253906 254.609375 67.867188 255.457031 67.867188 C 256.378906 67.867188 257.152344 68.253906 257.613281 68.945312 C 258.152344 69.71875 258.460938 70.949219 258.691406 72.644531 C 258.921875 74.417969 259 76.882812 259 80.042969 L 259 85.4375 Z M 258.921875 85.4375 "/></g></svg>